<svg width="48" height="48" viewBox="0 0 48 48" fill="none" xmlns="http://www.w3.org/2000/svg">
<path fill-rule="evenodd" clip-rule="evenodd" d="M43.2563 3.97392C43.3566 4.25318 43.3524 4.55203 43.2407 5.07415C43.0448 5.98995 43.0586 6.31844 43.3243 7.07532C43.5057 7.59186 43.6191 7.77007 44.0318 8.18741C44.6027 8.76462 44.9852 8.98088 45.7952 9.18419C46.259 9.30056 46.45 9.40083 46.7172 9.66799C47.0985 10.0493 47.1543 10.1856 47.2856 11.056C47.4258 11.9847 47.4309 12.8077 47.302 13.698C47.1451 14.7821 47.1008 14.9006 46.6998 15.3091C46.4268 15.587 46.2624 15.68 45.9404 15.7387C45.0543 15.9003 44.6228 16.1247 43.9983 16.7485C43.5002 17.246 43.3848 17.4125 43.2177 17.8754C42.98 18.5338 42.9661 19.3888 43.1831 20.012C43.3548 20.5051 43.291 21.0767 43.0176 21.4919C42.636 22.0717 40.5347 23.4644 39.5009 23.8229C38.6566 24.1156 38.3595 24.0243 37.5621 23.2269C36.9929 22.6576 36.8538 22.5605 36.3294 22.3668C35.6003 22.0974 34.9266 22.1042 34.1925 22.3882C33.702 22.5781 33.5522 22.6863 33.007 23.2449C32.3519 23.9162 31.9753 24.1407 31.5483 24.1143C31.0002 24.0805 29.3088 23.1864 28.1567 22.3215C26.9825 21.44 26.7945 21.0068 27.1197 19.9319C27.6489 18.1828 26.9433 16.6335 25.2701 15.8705C25.0057 15.7499 24.678 15.6568 24.5417 15.6635C24.1771 15.6814 23.4461 15.2552 23.2505 14.9107C22.9844 14.4419 22.8761 13.7472 22.8772 12.5142C22.8784 11.064 23.0443 10.1894 23.4072 9.7194C23.7103 9.3271 23.9931 9.17305 24.6345 9.05076C25.8941 8.81063 26.8747 7.94303 27.2611 6.72662C27.3902 6.32043 27.3793 5.33857 27.2415 4.95181C26.9947 4.2593 27.146 3.60954 27.6736 3.09667C28.544 2.25036 30.7912 0.989184 31.5332 0.930469C31.9116 0.900663 32.3533 1.14482 32.8881 1.6796C33.6101 2.40166 34.219 2.66295 35.1595 2.65425C36.0429 2.64609 36.6477 2.37141 37.3401 1.6639C38.252 0.732222 38.7122 0.711239 40.2381 1.53198C41.2354 2.06838 41.9067 2.51862 42.526 3.06625C43.016 3.49968 43.1425 3.6568 43.2563 3.97392ZM37.3476 9.14037C36.5038 8.59143 35.3331 8.3693 34.3314 8.56817C32.1482 9.00165 30.7425 11.0824 31.1666 13.253C31.356 14.2225 31.6907 14.8028 32.4744 15.5206C33.022 16.0222 33.1756 16.1147 33.8273 16.3356C34.6944 16.6294 35.3995 16.6409 36.292 16.3756C37.3793 16.0523 38.2433 15.3293 38.7387 14.328C39.0374 13.7243 39.1009 13.4885 39.142 12.8299C39.235 11.3428 38.5416 9.91725 37.3476 9.14037ZM46.1528 28.3705C46.1758 28.4189 46.364 28.7279 46.5712 29.0569C47.0072 29.7496 47.4442 30.871 47.4216 31.2397C47.4114 31.4066 47.2762 31.6466 47.0285 31.9373C46.5063 32.55 46.2948 33.0515 46.3234 33.6089C46.3554 34.2299 46.5472 34.6779 46.9569 35.0882C47.4022 35.5342 47.4987 35.9633 47.2809 36.5277C47.0161 37.2136 46.5685 37.9209 46.0702 38.441C45.665 38.8639 45.5781 38.9173 45.2793 38.927C45.0946 38.9329 44.8148 38.885 44.6573 38.8204C44.2725 38.6627 43.4714 38.6713 43.0627 38.8378C42.5502 39.0463 42.0327 39.6291 41.8422 40.2119C41.5876 40.9912 41.3631 41.1513 40.4173 41.2282C38.4351 41.3896 37.6926 41.1498 37.5792 40.312C37.5088 39.792 37.3553 39.4853 36.9759 39.107C36.3974 38.5304 35.6964 38.3934 34.7457 38.6713C34.0044 38.8881 33.6458 38.5867 32.9016 37.1215C32.485 36.3014 32.2913 35.6278 32.3838 35.3215C32.4161 35.2146 32.6144 34.9553 32.8245 34.7452C33.3963 34.1734 33.6113 33.6559 33.573 32.9436C33.5387 32.307 33.4386 32.1086 32.7806 31.371C32.2154 30.7377 32.2869 30.1974 33.0991 28.9608C33.9036 27.7361 34.3277 27.5004 35.2073 27.7896C36.4666 28.2034 37.7106 27.591 38.0765 26.3771C38.309 25.606 38.6346 25.4489 40.0575 25.4211C41.6172 25.3907 42.2532 25.6404 42.3342 26.3152C42.435 27.1531 42.9716 27.797 43.7626 28.029C44.0387 28.11 44.4193 28.1374 44.6112 28.0902C45.2282 27.9382 45.6561 27.9472 45.8866 28.1168C46.01 28.2078 46.1298 28.3219 46.1528 28.3705ZM40.8199 30.8802C39.1168 30.2031 37.2481 31.5144 37.2577 33.3798C37.2621 34.2186 37.5631 34.8533 38.2028 35.3721C38.7617 35.8253 39.1947 35.9734 39.9401 35.9661C41.3712 35.9524 42.5392 34.7382 42.4783 33.3278C42.4464 32.5911 42.4172 32.4645 42.1806 32.043C41.9031 31.5482 41.3835 31.1043 40.8199 30.8802ZM25.5916 22.8177C25.7811 23.1621 25.7821 23.8523 25.5939 24.5297C25.3372 25.4531 25.5033 26.6253 26.0169 27.5167C26.3402 28.0778 27.1319 28.8144 27.7184 29.0996C27.9962 29.2348 28.5143 29.4145 28.8695 29.4989C29.4494 29.6367 29.5592 29.6965 29.9399 30.0822C30.4348 30.5836 30.5234 30.8181 30.6883 32.0643C30.8708 33.4425 30.7615 35.3919 30.4511 36.2988C30.1898 37.0617 29.5966 37.5142 28.6215 37.6943C27.9338 37.8212 27.0887 38.2707 26.5873 38.776C25.4811 39.8912 25.112 41.297 25.5402 42.764C25.9544 44.1828 25.6521 44.7661 23.8186 46.0852C23.1601 46.5591 22.5138 46.9394 21.5471 47.4222C20.9413 47.7246 20.6187 47.8259 20.2449 47.8313C19.6235 47.8402 19.2594 47.6364 18.6714 46.9504C17.8714 46.0167 17.0083 45.6137 15.7771 45.5986C14.5775 45.584 13.6744 46.0274 12.7623 47.0788C12.2397 47.6813 12.128 47.7734 11.7862 47.884C11.3287 48.032 11.0808 48.0248 10.5581 47.8486C9.20216 47.3911 6.67983 45.7948 5.97229 44.9465C5.42197 44.2865 5.34403 43.801 5.63333 42.8353C6.06258 41.4023 5.86705 40.1828 5.02833 39.0622C4.37753 38.1927 3.6308 37.7654 2.20947 37.4492C1.62061 37.3183 1.09889 36.9687 0.773661 36.4872C0.567779 36.1824 0.348648 34.8351 0.334678 33.7883C0.323859 32.9772 0.54233 31.1983 0.720603 30.645C0.788321 30.4349 0.974579 30.1575 1.20049 29.9306C1.53133 29.5983 1.66026 29.538 2.4419 29.3498C3.59332 29.0726 4.1298 28.7962 4.77676 28.1466C5.37511 27.5458 5.70492 26.9441 5.87828 26.1368C6.03992 25.3837 6.00045 24.8454 5.72127 23.9977C5.52493 23.4015 5.74236 22.469 6.18449 22.0107C6.48054 21.7039 8.10642 20.575 8.77994 20.2088C9.57712 19.7752 10.6511 19.3182 11.0167 19.2569C11.1817 19.2293 11.5164 19.2788 11.7604 19.3669C12.1291 19.5001 12.2822 19.6147 12.666 20.0456C14.302 21.882 16.8348 21.8823 18.4595 20.0463C19.2982 19.0986 19.922 19.0333 21.4118 19.7374C23.2204 20.5922 25.1489 22.0134 25.5916 22.8177ZM18.1561 29.3276C16.6447 28.4293 14.929 28.357 13.2802 29.122C12.6843 29.3986 11.5736 30.4457 11.2282 31.0565C10.7813 31.8466 10.5688 32.6705 10.5694 33.61C10.5704 35.0217 11.0347 36.158 12.0065 37.127C12.8633 37.9813 13.7247 38.4223 14.841 38.578C16.503 38.8099 17.94 38.3221 19.1447 37.1174C19.8084 36.4537 20.3261 35.5214 20.4782 34.7164C20.6156 33.9882 20.5767 32.8376 20.3936 32.2184C20.0597 31.0893 19.1563 29.9221 18.1561 29.3276Z" fill="#8351FF"/>
</svg>
