<svg width="30" height="30" viewBox="0 0 30 30" fill="none" xmlns="http://www.w3.org/2000/svg">
<g id="view_in_ar_FILL0_wght400_GRAD0_opsz48 2">
<path id="Vector" d="M14.0005 24.7812L7.12549 20.75C6.83851 20.5745 6.61573 20.3431 6.45714 20.0558C6.29854 19.7686 6.21924 19.4583 6.21924 19.125V11.0937C6.21924 10.7604 6.29854 10.4501 6.45714 10.1629C6.61573 9.87568 6.83851 9.64429 7.12549 9.46875L14.0317 5.375C14.3234 5.20833 14.6463 5.125 15.0005 5.125C15.3547 5.125 15.6776 5.20833 15.9692 5.375L22.8755 9.46875C23.1625 9.64429 23.3853 9.87568 23.5439 10.1629C23.7024 10.4501 23.7817 10.7604 23.7817 11.0937V19.125C23.7817 19.4583 23.6997 19.7686 23.5356 20.0558C23.3716 20.3431 23.1411 20.5745 22.8442 20.75L15.8755 24.7812C15.577 24.9479 15.2628 25.0312 14.9329 25.0312C14.6029 25.0312 14.2922 24.9479 14.0005 24.7812ZM14.063 22.625V15.625L8.12549 12.2187V19.0625L14.063 22.625ZM15.938 22.625L21.9067 19.0625V12.2187L15.938 15.625V22.625ZM2.50049 8.40625V4.375C2.50049 3.85937 2.68408 3.41797 3.05127 3.05078C3.41846 2.68359 3.85986 2.5 4.37549 2.5H8.40674V4.375H4.37549V8.40625H2.50049ZM8.40674 27.5H4.37549C3.85986 27.5 3.41846 27.3164 3.05127 26.9492C2.68408 26.582 2.50049 26.1406 2.50049 25.625V21.5937H4.37549V25.625H8.40674V27.5ZM21.5942 27.5V25.625H25.6255V21.5937H27.5005V25.625C27.5005 26.1406 27.3169 26.582 26.9497 26.9492C26.5825 27.3164 26.1411 27.5 25.6255 27.5H21.5942ZM25.6255 8.40625V4.375H21.5942V2.5H25.6255C26.1411 2.5 26.5825 2.68359 26.9497 3.05078C27.3169 3.41797 27.5005 3.85937 27.5005 4.375V8.40625H25.6255ZM15.0005 13.9375L20.938 10.5L15.0005 7.09375L9.06299 10.5L15.0005 13.9375Z" fill="#8351FF"/>
</g>
</svg>
