<?xml version="1.0" standalone="no"?>
<!DOCTYPE svg PUBLIC "-//W3C//DTD SVG 20010904//EN"
 "http://www.w3.org/TR/2001/REC-SVG-20010904/DTD/svg10.dtd">
<svg version="1.0" xmlns="http://www.w3.org/2000/svg"
 width="1216.000000pt" height="1280.000000pt" viewBox="0 0 1216.000000 1280.000000"
 preserveAspectRatio="xMidYMid meet">
<metadata>
Created by potrace 1.15, written by Peter Selinger 2001-2017
</metadata>
<g transform="translate(0.000000,1280.000000) scale(0.100000,-0.100000)"
fill="#000000" class="dnd-style" stroke="none">
<path d="M8240 12776 c-137 -41 -197 -79 -575 -363 -310 -234 -417 -326 -601
-524 -367 -393 -611 -716 -959 -1269 -127 -202 -370 -577 -381 -589 -2 -2 -31
22 -64 52 -34 31 -111 90 -173 130 -149 99 -547 337 -672 403 -442 234 -995
356 -1835 406 -291 17 -1189 17 -1335 0 -221 -25 -335 -55 -579 -150 -128 -50
-126 -47 -126 -232 0 -273 24 -379 106 -469 48 -54 101 -84 209 -121 140 -47
216 -98 287 -193 51 -66 67 -106 133 -319 55 -179 83 -238 111 -238 19 0 532
-47 664 -61 304 -31 517 -86 597 -153 68 -57 159 -259 140 -310 -9 -22 -72
-51 -152 -69 -91 -20 -238 -34 -565 -52 -473 -27 -766 -61 -964 -110 -272 -69
-645 -221 -1284 -523 l-224 -105 4 -221 c4 -249 11 -282 86 -359 67 -70 141
-97 322 -121 266 -35 370 -102 421 -271 28 -92 53 -135 95 -164 63 -43 108
-35 398 74 316 118 372 133 422 114 39 -15 40 -16 74 -92 29 -62 116 -145 271
-258 68 -50 123 -95 121 -100 -1 -6 -42 -60 -90 -122 -181 -230 -328 -445
-534 -782 -148 -242 -199 -334 -282 -507 -131 -272 -178 -439 -227 -800 -23
-166 -23 -167 -3 -189 17 -19 26 -21 82 -15 34 4 129 23 210 42 288 69 524
114 602 114 111 -1 179 -38 204 -115 16 -49 76 -95 124 -95 73 0 149 59 260
201 87 112 187 163 417 215 252 56 388 141 520 324 137 189 208 257 341 324
82 41 142 59 289 86 220 42 321 90 345 168 31 94 51 129 86 146 35 16 396 116
421 116 9 0 3 -14 -15 -37 -40 -52 -107 -178 -127 -241 -16 -48 -16 -54 -1
-76 9 -14 27 -26 43 -28 70 -8 93 -144 93 -563 0 -603 -42 -1091 -109 -1259
-41 -103 -44 -124 -26 -152 11 -18 25 -24 51 -24 24 0 43 -8 61 -26 25 -25 25
-29 20 -112 -6 -97 -31 -183 -70 -240 -44 -62 -49 -139 -41 -622 7 -454 2
-548 -34 -619 -18 -37 -31 -46 -73 -55 -57 -12 -76 -135 -44 -287 20 -96 48
-156 94 -204 51 -53 63 -96 63 -218 -1 -90 -27 -385 -35 -393 -1 -2 -461 -65
-1022 -140 -561 -76 -1022 -139 -1024 -140 -7 -6 63 -59 88 -66 196 -57 3551
-156 4035 -120 139 11 139 11 172 44 l33 33 -24 195 c-30 246 -39 303 -77 470
-48 214 -44 332 27 665 28 137 31 191 11 239 -10 24 -22 35 -44 39 -18 4 -39
18 -49 34 -28 42 -22 190 18 423 42 253 46 423 11 467 -29 37 -40 62 -53 131
-17 89 -22 775 -10 1202 7 212 14 641 18 953 l6 568 28 -27 c43 -41 92 -143
164 -339 67 -184 80 -210 124 -258 66 -72 111 -73 222 -6 179 109 218 121 284
89 78 -38 232 -224 424 -513 114 -171 140 -190 276 -195 49 -2 137 3 195 11
58 8 108 12 111 8 4 -3 44 -109 89 -236 161 -447 222 -536 449 -649 138 -68
168 -86 316 -186 155 -105 297 -183 500 -275 103 -47 191 -85 196 -85 5 0 7
10 4 23 -2 12 -12 77 -20 145 -45 360 -264 1168 -436 1607 -123 314 -280 552
-655 990 -268 314 -356 438 -383 542 -17 63 -4 84 91 141 69 41 105 55 218 82
223 53 327 32 471 -96 133 -118 249 -170 547 -245 106 -27 216 -58 245 -71 94
-39 146 -84 147 -124 0 -11 10 -30 23 -41 41 -39 98 -47 302 -42 383 8 472 0
603 -52 97 -39 142 -38 175 1 14 16 30 52 36 80 27 126 110 225 325 387 77 58
142 107 144 108 1 1 -7 28 -18 59 -24 63 -84 133 -262 303 -222 213 -728 654
-922 804 -223 173 -395 251 -1056 479 -470 162 -584 208 -643 261 -23 20 -40
39 -37 41 3 2 39 20 80 40 86 41 250 84 495 128 298 53 393 81 482 142 89 61
116 123 107 248 -6 75 -4 91 14 127 52 102 199 166 454 198 318 39 470 87 555
172 53 53 66 103 61 241 -3 96 -6 114 -25 141 -35 47 -30 84 20 138 46 50 205
179 397 323 69 51 127 95 130 97 3 3 -27 35 -66 73 -52 49 -87 74 -130 90
-163 61 -507 107 -974 130 -236 12 -523 2 -710 -26 -215 -31 -462 -104 -725
-214 -317 -133 -1119 -570 -1430 -780 -60 -40 -89 -52 -197 -79 -129 -32 -192
-38 -203 -21 -12 20 29 81 105 157 152 152 318 252 615 368 270 106 355 163
355 236 0 48 -32 122 -74 174 -75 91 -170 347 -151 406 9 28 135 87 588 275
l117 49 0 86 c0 105 -14 185 -38 219 -10 14 -39 35 -64 47 -85 41 -104 101
-123 393 -15 235 -27 288 -79 360 -53 73 -113 99 -264 115 -164 18 -209 36
-251 105 -33 56 -23 184 34 428 6 27 9 27 -85 -2z m-453 -1021 c24 -8 129 -27
235 -41 106 -14 194 -27 195 -27 4 -5 -49 -477 -67 -590 -29 -186 -57 -233
-211 -358 -53 -42 -109 -93 -124 -111 -52 -61 -84 -145 -95 -252 -24 -210
-116 -365 -438 -741 -257 -297 -360 -432 -407 -530 -24 -49 -82 -198 -128
-330 -89 -253 -145 -385 -195 -457 -31 -45 -161 -183 -166 -177 -1 2 -24 132
-50 289 -114 691 -167 1025 -168 1073 -2 60 37 157 159 401 251 500 585 1027
853 1342 170 199 513 524 553 524 7 0 31 -7 54 -15z m-4625 -1135 c351 -24
676 -84 893 -165 167 -63 533 -242 698 -343 132 -80 583 -417 652 -487 127
-126 265 -361 329 -557 50 -153 69 -277 69 -458 -1 -284 -43 -468 -110 -478
-12 -2 -53 13 -92 33 -40 19 -142 65 -229 101 -236 98 -304 137 -391 224 -98
96 -136 171 -195 373 -65 224 -99 298 -170 375 -68 73 -141 114 -243 138 -56
13 -126 15 -408 12 -304 -3 -346 -1 -398 15 -78 24 -115 59 -126 120 -5 27
-18 59 -30 71 -63 67 -212 112 -477 146 -274 34 -388 63 -499 125 -83 46 -155
128 -155 177 0 29 -49 115 -88 155 -51 52 -162 106 -272 132 -47 11 -195 34
-330 51 -134 17 -246 33 -248 35 -11 10 84 82 154 116 171 82 298 94 1066 97
245 1 515 -3 600 -8z m7633 -562 l34 -33 -15 -115 c-19 -147 -35 -190 -94
-249 -95 -95 -217 -154 -543 -261 -363 -120 -478 -194 -461 -297 8 -54 -8 -86
-79 -160 -85 -89 -218 -184 -502 -358 -391 -240 -508 -322 -623 -434 l-73 -71
-347 -70 c-685 -138 -900 -224 -1292 -513 -134 -99 -246 -195 -393 -338 -70
-68 -127 -120 -127 -116 0 13 39 165 62 242 44 147 130 304 246 450 160 200
744 750 1107 1041 707 568 1268 851 2240 1130 412 118 680 181 783 183 35 1
48 -5 77 -31z m-6522 -1141 c43 -26 71 -57 100 -114 50 -97 -18 -145 -252
-178 -79 -11 -586 -45 -670 -45 -18 0 -13 111 7 149 32 64 192 132 427 181
222 46 318 48 388 7z m-533 -792 c351 -29 565 -61 930 -136 478 -99 693 -153
798 -199 39 -18 72 -35 72 -39 0 -6 -1070 -79 -1562 -107 -435 -24 -824 -17
-912 18 -28 11 -56 58 -56 95 -1 50 -14 48 -156 -27 -77 -40 -207 -117 -289
-171 -93 -60 -169 -102 -198 -110 -96 -24 -178 6 -286 105 -77 71 -115 96
-166 112 -58 17 -93 6 -162 -51 -129 -106 -330 -157 -394 -99 -10 9 -21 33
-25 53 -16 93 -61 117 -290 151 -147 22 -184 33 -184 54 0 17 321 183 415 214
195 66 663 118 1355 152 251 12 890 4 1110 -15z m5390 -629 c386 -42 638 -115
962 -277 224 -112 555 -320 773 -485 92 -70 345 -301 345 -316 0 -6 -394 76
-486 102 -40 11 -116 37 -171 58 -116 47 -163 59 -428 111 -280 56 -336 76
-478 176 -27 19 -65 40 -85 46 -74 23 -276 22 -492 -1 -248 -27 -459 -25 -525
5 -88 40 -441 28 -910 -30 -288 -36 -465 -69 -731 -134 -129 -32 -234 -54
-234 -49 0 6 21 51 47 101 91 177 195 286 398 421 115 77 300 181 372 209 84
33 248 59 513 81 25 2 257 2 515 1 345 -2 508 -7 615 -19z m-3576 -206 c112
-13 216 -39 216 -54 0 -6 -25 -108 -55 -226 -55 -215 -100 -332 -138 -355 -18
-11 -21 -9 -105 47 -57 38 -157 70 -224 72 -50 1 -61 -3 -86 -27 -33 -32 -48
-80 -56 -180 -7 -89 -36 -152 -98 -210 -86 -80 -269 -157 -376 -157 -68 0
-109 25 -139 84 -36 72 -69 113 -105 132 -115 60 -173 28 -272 -149 -51 -91
-118 -176 -271 -346 -86 -95 -121 -149 -164 -253 -25 -60 -60 -83 -128 -83
-69 0 -100 29 -112 104 -10 63 -21 75 -65 74 -99 -3 -221 -97 -372 -289 -204
-257 -256 -316 -314 -351 -98 -59 -376 -166 -540 -208 -150 -39 -227 -31 -259
26 -13 23 -12 34 3 100 37 150 105 283 248 485 72 101 106 135 391 391 470
423 599 530 865 720 346 247 835 504 1112 584 86 25 271 57 395 68 143 12 544
13 649 1z m-2862 -403 c-119 -119 -242 -188 -299 -166 -43 16 -16 122 46 183
51 49 104 65 231 65 l105 1 -83 -83z m5566 -267 c77 -18 135 -53 210 -124 41
-39 70 -72 64 -74 -11 -3 -282 51 -395 79 -43 11 -101 30 -130 44 -48 22 -117
76 -117 91 0 10 318 -4 368 -16z m-2247 -167 c36 -30 37 -55 3 -82 -33 -26
-119 -54 -143 -46 -10 3 -26 24 -35 46 -19 46 -56 178 -56 197 0 15 186 -77
231 -115z m1419 -27 l125 -13 220 -138 c423 -265 569 -374 797 -594 299 -289
538 -618 759 -1046 71 -139 439 -926 439 -941 0 -9 -167 -3 -205 7 -56 15
-131 95 -183 196 -23 45 -72 160 -108 255 -85 227 -119 300 -171 376 -24 34
-55 92 -68 130 -40 110 -76 128 -285 142 -246 17 -320 49 -389 167 -142 241
-286 440 -387 532 -94 86 -166 119 -285 132 -227 24 -276 42 -381 135 -66 59
-109 85 -200 123 -59 24 -83 61 -99 151 -15 87 -8 255 13 295 54 102 136 120
408 91z m-1034 -337 c16 -18 19 -35 17 -118 -1 -53 -8 -136 -16 -186 l-13 -90
-73 110 c-133 200 -146 241 -83 268 100 42 141 46 168 16z m-426 -350 c65 -14
74 -34 65 -144 -19 -225 -69 -313 -237 -411 l-81 -48 -38 42 c-38 40 -39 43
-39 116 0 80 52 307 89 391 17 38 24 45 63 53 60 14 118 14 178 1z m419 -774
c-28 -93 -57 -183 -66 -200 -41 -82 -92 -97 -139 -42 -39 46 -84 146 -84 186
0 80 92 157 242 201 51 15 94 27 96 26 1 -2 -21 -79 -49 -171z m-589 -352 c96
-103 114 -140 114 -228 0 -96 -27 -150 -125 -246 -86 -85 -179 -140 -208 -122
-47 30 -50 120 -11 327 32 166 65 261 107 307 19 21 39 39 43 39 4 0 40 -35
80 -77z m500 -510 c43 -25 55 -57 54 -143 -2 -117 -50 -370 -90 -477 -18 -49
-53 -66 -175 -87 -81 -14 -130 -8 -161 21 -75 68 -94 262 -37 375 31 62 92
121 203 200 55 39 116 84 134 100 38 33 36 33 72 11z m-585 -888 c16 -31 30
-79 33 -106 4 -47 3 -51 -35 -87 -33 -32 -80 -55 -195 -98 -17 -6 -18 11 -18
267 l1 274 93 -96 c60 -62 103 -117 121 -154z m384 -386 c83 -42 183 -136 217
-205 34 -69 35 -144 4 -234 -37 -106 -69 -161 -134 -228 l-61 -64 -63 6 c-89
9 -279 60 -357 95 -143 65 -191 132 -183 255 8 120 79 218 225 312 149 95 251
113 352 63z m331 -1134 c-15 -73 -48 -110 -97 -110 -75 0 -121 55 -142 170
-13 67 -14 165 -3 181 13 19 55 37 152 65 l95 26 3 -140 c1 -78 -2 -164 -8
-192z m-556 -195 c22 -5 51 -18 65 -29 39 -31 111 -68 159 -80 23 -6 60 -16
83 -22 l40 -10 -82 -157 c-45 -86 -91 -170 -102 -186 -20 -28 -22 -28 -86 -22
-68 6 -304 64 -379 93 -50 19 -65 43 -87 135 -32 137 -13 208 67 246 68 34
242 51 322 32z m530 -732 c18 -162 12 -211 -29 -230 -45 -20 -164 42 -185 98
-17 43 7 89 96 183 47 50 89 91 93 91 5 0 16 -64 25 -142z"/>
</g>
</svg>
